<svg width="248" height="259" viewBox="0 0 248 259" fill="none" xmlns="http://www.w3.org/2000/svg">
<path fill-rule="evenodd" clip-rule="evenodd" d="M22.7791 199.584C22.2735 197.155 21.719 194.736 21.2348 192.303C21.0006 191.126 20.8667 189.926 20.7075 188.734C20.4105 186.51 20.117 184.286 19.8457 182.059C19.7503 181.276 19.6819 180.484 19.6733 179.695C19.6037 173.304 19.4373 166.911 19.5442 160.523C19.5936 157.565 20.181 154.616 20.5331 151.664C20.9963 147.781 21.9694 144.021 23.0921 140.301C24.7079 134.946 26.3439 129.599 27.9746 124.25C28.8507 121.376 29.7915 118.522 30.5877 115.624C30.9551 114.287 31.1037 112.873 31.2457 111.483C31.3806 110.161 31.525 108.809 31.4036 107.496C31.1765 105.041 30.7859 102.6 30.4148 100.161C30.098 98.0793 29.7277 96.0058 29.3552 93.9338C28.7767 90.7156 28.6058 87.4678 28.668 84.2021C28.717 81.6261 28.641 79.0365 28.8728 76.4779C29.2079 72.7793 29.7176 69.0735 31.1158 65.6218C32.1855 62.9808 33.3711 60.3715 34.7343 57.8851C36.081 55.4288 37.68 53.1187 39.2367 50.7944C40.1862 49.3766 41.1923 47.9846 42.3025 46.7034C44.0128 44.7296 45.7809 42.8028 47.6209 40.9611C50.4944 38.0848 53.7134 35.6602 57.1345 33.5458C60.363 31.5504 63.7799 29.9688 67.3682 28.8108C69.8244 28.0182 72.3016 27.2949 74.746 26.4653C76.4948 25.8717 78.171 25.0231 79.9405 24.5235C82.1364 23.9036 84.3808 23.4275 86.6307 23.072C88.9399 22.7071 91.2793 22.5415 93.6089 22.3285C95.3174 22.1723 97.03 22.0428 98.7434 21.9693C101.025 21.8714 103.31 21.8131 105.594 21.7863C108.18 21.7559 110.768 21.7337 113.353 21.7941C115.326 21.8401 117.298 21.9906 119.267 22.148C121.913 22.3597 124.558 22.5993 127.2 22.8715C129.156 23.0731 131.114 23.2882 133.055 23.6008C135.699 24.0265 138.335 24.5124 140.962 25.0419C144.667 25.7888 148.387 26.4825 152.051 27.4144C155.922 28.3988 159.793 29.4605 163.428 31.2226C166.696 32.807 169.969 34.3926 173.148 36.1596C176.044 37.7694 178.81 39.6319 181.643 41.3657C182.731 42.0312 183.862 42.6189 184.941 43.2986C185.664 43.7544 186.393 44.2385 187.011 44.8325C189.819 47.531 192.601 50.2589 195.367 53.0052C196.7 54.3297 197.976 55.7182 199.278 57.0777C200.739 58.6039 202.27 60.0652 203.644 61.6727C205.389 63.7132 206.989 65.8878 208.683 67.9766C210.961 70.7856 212.49 74.0619 214.142 77.2717C215.264 79.4508 215.962 81.7899 216.781 84.0839C217.342 85.6516 217.983 87.2306 218.238 88.8642C218.628 91.3577 220.042 93.3383 220.891 95.59C221.76 97.8972 222.454 100.278 223.192 102.637C223.823 104.656 224.479 106.671 224.993 108.723C225.466 110.612 225.768 112.548 226.138 114.466C226.422 115.941 226.719 117.414 226.962 118.897C227.134 119.948 227.221 121.015 227.352 122.074C227.58 123.932 227.826 125.789 228.038 127.649C228.18 128.891 228.307 130.137 228.381 131.385C228.474 132.954 228.507 134.527 228.562 136.099C228.622 137.851 228.789 139.609 228.713 141.354C228.533 145.469 222.048 162.008 219.43 166.066C217.912 168.419 216.449 170.812 214.891 173.136C212.85 176.181 210.763 179.193 208.654 182.187C206.13 185.772 203.593 189.348 200.999 192.878C199.773 194.546 198.429 196.123 197.088 197.694C195.967 199.007 194.842 200.332 193.594 201.507C191.158 203.803 188.646 206.012 186.144 208.23C182.846 211.154 179.228 213.627 175.49 215.852C172.438 217.668 169.209 219.197 165.957 220.596C161.053 222.705 156.071 224.615 151.105 226.563C147.31 228.052 143.514 229.546 139.671 230.892C136.422 232.029 133.129 233.057 129.81 233.945C126.999 234.697 124.131 235.225 121.273 235.768C119.272 236.148 117.251 236.43 115.23 236.675C113.26 236.913 111.28 237.06 109.302 237.225C108.261 237.311 107.217 237.382 106.173 237.404C102.707 237.48 99.241 237.559 95.7748 237.579C94.0685 237.588 92.3574 237.528 90.6559 237.396C88.2671 237.21 85.8746 237.008 83.5031 236.666C80.7979 236.275 78.1163 235.71 75.4205 235.245C73.202 234.863 70.9677 234.574 68.7583 234.144C64.9653 233.406 61.1681 232.673 57.4068 231.781C54.3964 231.067 51.3989 230.241 48.4628 229.249C43.7917 227.67 39.4148 225.409 35.4627 222.339C34.1378 221.31 32.8274 220.209 31.7128 218.946C29.057 215.937 26.9215 212.542 25.3779 208.671C24.1966 205.681 23.4185 202.655 22.7791 199.584Z" fill="#64FCD9"/>
<path d="M134.585 206.141C134.239 208.039 134.101 209.928 133.494 211.635C132.706 213.849 130.882 215.187 128.776 215.868C126.462 216.616 124.08 217.14 121.712 217.69C120.925 217.872 120.091 217.837 119.278 217.888C116.351 218.072 113.422 218.244 110.495 218.435C108.898 218.539 107.304 218.694 105.707 218.787C104.175 218.876 102.639 218.978 101.107 218.954C100.767 218.948 98.6412 219.269 95.6674 219.487C95.0898 219.53 95.9887 222.788 94.9503 223.13C92.6369 223.891 86.9708 223.677 85.9822 222.061C84.9937 220.446 85.3441 219.765 84.2482 219.298C78.8887 217.014 73.3681 216.48 71.7503 211.635C70.6736 208.41 72.7231 200.769 72.1271 194.904C70.5989 179.863 67.5595 163.081 67.4602 162.994C67.4703 162.983 64.2236 163.273 63.9818 162.03C60.9819 146.61 59.6139 126.286 67.4602 121.162C72.185 118.076 81.1849 114.906 91.1628 112.317C92.6129 111.941 93.469 109.716 94.9503 109.366C95.2817 109.288 96.2954 107.278 97.165 105.258C98.0405 103.224 98.7769 101.181 100.574 101.092C104.269 100.908 110.643 95.9657 114.967 97.5079C118.927 98.9202 120.934 106.87 122.463 105.907C124.004 104.937 125.368 106.622 127.479 106.622C142.588 106.622 153.967 136.597 155.549 143.973C152.905 147.958 145.073 147.958 137.672 150.319C136.448 148.742 133.988 144.011 133.193 141.35C132.375 138.611 132.093 144.821 132.036 147.022C131.961 149.869 132.206 152.725 132.341 155.576C132.429 157.455 132.576 159.331 132.679 161.21C132.86 164.508 133.052 167.806 133.193 171.106C133.292 173.428 133.249 175.758 133.393 178.077C133.539 180.453 133.843 182.817 134.064 185.188C134.194 186.583 134.312 187.979 134.408 189.376C134.488 190.554 134.602 191.737 134.57 192.915C134.508 195.196 134.28 197.474 134.27 199.754C134.265 200.945 134.647 202.132 134.726 203.33C134.785 204.229 134.64 205.143 134.585 206.141Z" fill="white"/>
<path d="M158.744 63.9086C157.77 62.9449 157.174 61.7409 156.408 60.6693C156.386 60.6376 156.364 60.6045 156.348 60.5692C155.749 59.2108 155.163 57.8528 154.878 56.368C154.712 55.501 154.719 54.6559 154.845 53.7959C154.908 53.3682 154.934 52.9337 155.016 52.5105C155.266 51.2112 155.872 50.0797 156.584 49.0037C156.798 48.6801 157.044 48.3788 157.253 48.0511C158.033 46.824 159.135 46.034 160.418 45.4835C161.253 45.1253 162.11 44.8233 162.927 44.4182C163.028 44.3684 163.139 44.3238 163.248 44.313C164.6 44.1795 165.951 44.0407 167.304 43.928C168.624 43.8179 169.946 43.8484 171.266 43.9373C171.982 43.9853 172.701 44.0061 173.413 44.0816C174.959 44.2457 176.454 44.6102 177.89 45.2656C178.892 45.7234 179.903 46.1515 180.864 46.7054C181.969 47.3418 182.906 48.1869 183.793 49.1049C184.199 49.5252 184.51 50.0176 184.787 50.5354C184.953 50.8445 185.1 51.1681 185.294 51.4567C186.423 53.1353 186.667 55.0044 186.393 56.9806C186.329 57.4467 186.185 57.9012 186.223 58.381C186 59.3384 185.783 60.2995 185.237 61.1286C184.808 61.7788 184.344 62.3985 183.766 62.9166C183.565 63.0963 183.364 63.277 183.183 63.4771C182.79 63.9112 182.312 64.2222 181.858 64.5744C180.881 65.3332 179.792 65.8688 178.715 66.4323C178.581 66.5022 178.439 66.558 178.296 66.6034C177.72 66.7868 177.141 66.9638 176.562 67.142C175.911 67.3425 175.263 67.5552 174.607 67.7375C173.579 68.0231 172.514 68.0272 171.468 68.1723C171.32 68.1928 171.164 68.1816 171.016 68.1552C169.899 67.9573 168.768 67.8971 167.646 67.7509C167.459 67.7267 167.276 67.6761 167.092 67.6359C165.836 67.3629 164.572 67.1204 163.353 66.6863C163.048 66.5777 162.772 66.6023 162.488 66.7767C162.163 66.9757 161.818 67.1386 161.479 67.3109C160.761 67.6746 160.137 68.1864 159.49 68.6637C159.307 68.799 159.114 68.9222 158.919 69.0382C158.768 69.1278 158.509 68.9932 158.469 68.8061C158.42 68.5766 158.372 68.3493 158.437 68.108C158.8 66.7619 158.788 65.3849 158.744 63.9086Z" fill="white"/>
<path fill-rule="evenodd" clip-rule="evenodd" d="M95.4414 108.247C95.4414 108.247 97.0861 105.895 97.654 104.67C98.2218 103.444 98.7557 101.092 98.7557 101.092C98.7557 101.092 110.492 118.446 108.635 118.672C104.923 119.124 95.4414 108.247 95.4414 108.247Z" fill="#E7EAEE"/>
<path d="M146.051 163.801C144.193 160.716 140.245 153.524 138.427 150.486C138.385 150.416 146.851 142.285 154.388 144.344C155.136 144.548 156.575 147.595 157.28 147.958C158.594 148.634 158.359 145.33 160.873 140.674C164.831 133.344 172.121 122.397 174.984 115.861C176.147 113.205 175.324 111.135 175.202 110.555C174.747 108.409 173.682 106.659 172.143 105.189C171.144 104.236 171.105 102.108 172.241 101.521C173.08 101.089 174.026 100.951 174.984 101.451C176.077 102.021 177.164 102.56 177.916 103.623C178.018 103.767 178.196 103.851 178.339 103.963C178.408 103.782 178.484 103.603 178.544 103.419C179.15 101.573 179.707 99.7075 180.371 97.8842C180.958 96.273 181.608 94.6799 182.346 93.1396C182.589 92.6319 183.202 91.9781 183.634 91.9883C184.268 92.0035 184.682 92.7188 184.777 93.4688C184.827 93.8665 184.881 94.2643 184.953 94.6582C184.985 94.8313 185.065 94.9947 185.123 95.1625C185.238 95.0187 185.345 94.8665 185.469 94.7329C185.846 94.33 186.181 93.8545 186.623 93.5551C187.231 93.1437 187.924 93.601 187.875 94.3913C187.807 95.4831 187.726 96.5929 187.473 97.649C187.02 99.548 186.433 101.412 185.909 103.293C185.878 103.405 185.908 103.536 185.909 103.658C186.027 103.592 186.204 103.557 186.254 103.454C186.584 102.786 186.937 102.122 187.187 101.42C187.591 100.285 188.203 99.3128 189.088 98.5452C189.294 98.3666 189.627 98.349 189.902 98.2574C189.982 98.5242 190.181 98.8247 190.122 99.0525C189.696 100.7 189.328 102.378 188.735 103.962C187.241 107.952 185.645 111.902 184.076 115.861C183.17 118.15 182.117 120.383 181.347 122.72C180.563 125.102 180.106 127.6 179.394 130.011C178.639 132.568 177.768 135.088 176.919 137.614C175.628 141.452 174.467 145.348 172.957 149.091C171.778 152.016 170.242 154.8 168.697 157.544C167.54 159.6 166.215 161.577 164.774 163.427C163.928 164.513 162.726 165.306 161.654 166.191C159.938 167.608 157.989 168.512 155.856 169.023C153.401 169.611 151.222 169.154 149.39 167.283C148.28 166.149 147.192 164.993 146.051 163.801Z" fill="white"/>
<path fill-rule="evenodd" clip-rule="evenodd" d="M88.2924 87.7338C88.0558 88.2333 88.0712 88.6705 88.3794 89.0948C88.5176 89.2849 88.667 89.4662 88.8163 89.6475C88.9767 89.8421 89.1371 90.0368 89.2835 90.2423C89.5047 90.5528 89.7331 90.8593 89.9617 91.1659C90.5617 91.9708 91.1622 92.7765 91.6332 93.657C92.2988 94.9013 93.0695 95.8188 94.4683 96.0824C95.036 96.1894 95.2503 96.6632 95.3183 97.2871C95.4129 98.1553 95.5677 99.0354 95.8437 99.8565C96.0413 100.444 96.5635 100.834 97.2288 100.758C97.5406 100.723 97.8513 100.668 98.1617 100.613L98.1617 100.613C98.6395 100.529 99.1166 100.444 99.596 100.432C100.055 100.42 100.651 100.546 100.96 100.855C101.786 101.682 102.546 102.581 103.305 103.479L103.305 103.48C103.462 103.666 103.619 103.851 103.776 104.035C103.834 104.104 103.891 104.173 103.948 104.241C104.502 104.91 105.017 105.531 106.119 105.132C107.427 104.658 108.803 104.446 110.222 104.543C111.523 104.631 112.031 104.171 112.432 102.84C112.473 102.703 112.508 102.564 112.542 102.424L112.542 102.424C112.609 102.155 112.677 101.886 112.789 101.639C112.831 101.546 112.874 101.451 112.916 101.356L112.916 101.356C113.147 100.835 113.384 100.302 113.74 99.8923C114.385 99.1528 115.221 99.2664 116.077 99.5836C117.041 99.9407 117.541 99.7217 117.957 98.8064C118.133 98.419 118.192 98.424 118.513 98.6718C118.774 98.8724 119.184 98.9651 119.516 98.9395C120.338 98.876 121.16 98.7559 121.966 98.5762C122.257 98.5113 122.642 98.2708 122.742 98.0096C122.863 97.69 122.986 97.3706 123.108 97.0511C123.799 95.2498 124.491 93.4459 125.044 91.598C125.944 88.5921 126.614 85.5146 126.613 82.3395C126.612 80.2124 126.552 78.0852 126.492 75.9582L126.492 75.9573C126.477 75.4186 126.462 74.88 126.448 74.3414C126.441 74.0854 126.435 73.8293 126.429 73.5731V73.573C126.403 72.4064 126.376 71.2384 126.264 70.0803C126.061 67.9906 125.801 65.9069 125.54 63.8235L125.54 63.8234C125.496 63.4733 125.452 63.1231 125.409 62.773C125.281 61.7467 125.133 60.7232 124.984 59.6998L124.984 59.6996L124.984 59.6985C124.935 59.3604 124.886 59.0222 124.837 58.684L124.733 57.9515L124.733 57.9505C124.5 56.3234 124.268 54.6962 124.023 53.0712C124.013 53.0078 124.004 52.9422 123.995 52.8756L123.995 52.8753C123.951 52.5372 123.903 52.1749 123.72 51.9463C123.557 51.742 123.394 51.5371 123.231 51.3322C122.188 50.0206 121.143 48.7055 119.98 47.5187C119.067 46.5876 117.968 45.8399 116.888 45.1057L116.747 45.0102C113.796 43.0022 110.491 42.0983 107.017 41.8598C106.065 41.7944 105.108 41.8095 104.151 41.8246C103.578 41.8336 103.004 41.8426 102.432 41.8344C101.91 41.8269 101.627 42.0007 101.288 42.4766C100.838 43.1082 100.165 43.6164 99.5017 44.0225C97.844 45.0369 96.3852 46.2284 95.2647 47.9033C93.793 50.1034 92.4446 52.367 91.5633 54.8906C90.8835 56.837 90.4133 58.8361 90.2511 60.9299C90.1987 61.6059 90.0682 62.2731 89.9377 62.9406C89.6851 64.2322 89.4321 65.5253 89.7443 66.8872C89.8788 67.4741 89.957 68.076 90.0352 68.6775C90.1269 69.3826 90.2185 70.0872 90.4005 70.7662L90.5012 71.1406C91.082 73.2972 91.6519 75.4134 91.5385 77.7342C91.4166 80.2288 90.5691 82.4083 89.5873 84.7696C89.4618 85.0593 89.3383 85.3501 89.2149 85.6409L89.2148 85.6409C88.9165 86.3433 88.6182 87.0457 88.2924 87.7338ZM127.143 71.3085C127.144 71.3299 127.142 71.3531 127.14 71.3761C127.135 71.4173 127.131 71.4577 127.148 71.486C127.198 71.5735 127.259 71.6547 127.319 71.7359L127.319 71.736C127.343 71.768 127.367 71.8 127.39 71.8324C127.416 71.8084 127.442 71.7854 127.469 71.7624C127.527 71.7127 127.585 71.663 127.632 71.6037C127.765 71.4351 127.899 71.2673 128.033 71.0996L128.033 71.0995C128.414 70.6222 128.795 70.1448 129.153 69.6488C129.942 68.5548 130.713 67.4467 131.468 66.3273C131.914 65.6674 131.471 65.3939 130.943 65.3548C129.843 65.2733 128.911 65.7588 127.966 66.3261C127.291 66.7314 126.794 67.0709 126.97 68.1409L126.996 68.6142L126.996 68.6147C127.045 69.5126 127.094 70.4105 127.143 71.3085ZM89.4791 71.8162C89.4553 71.8568 89.4315 71.8973 89.4142 71.9365C88.9438 71.7024 88.5077 71.4227 88.0759 71.1457C87.6979 70.9034 87.3232 70.6631 86.9319 70.4574C86.0475 69.9924 85.7363 69.148 85.4531 68.3088C85.1271 67.3429 85.8525 66.4203 86.836 66.4273C86.8798 66.4276 86.9237 66.4278 86.9677 66.428C87.3183 66.4293 87.6742 66.4306 88.0113 66.5078C88.6735 66.6594 88.7392 67.1954 88.8025 67.7118C88.8222 67.8721 88.8416 68.0305 88.8785 68.175C89.115 69.0993 89.2878 70.0417 89.4603 70.9832C89.4961 71.1781 89.5318 71.3728 89.568 71.5674C89.5818 71.6415 89.5305 71.7289 89.4791 71.8162Z" fill="white"/>
<ellipse cx="121.024" cy="82.5346" rx="2.31467" ry="2.41733" fill="#FFB61D"/>
<ellipse cx="96.8855" cy="80.4626" rx="2.31467" ry="2.41733" fill="#FFB61D"/>
<path fill-rule="evenodd" clip-rule="evenodd" d="M107.828 51.3353C109.147 51.6312 110.577 51.9903 111.91 51.2343C112.361 50.9783 112.786 50.6631 113.197 50.3398C113.448 50.1426 113.674 49.8978 113.871 49.641C115.437 47.6026 116.592 47.907 118.748 49.2378C121.506 50.9405 124.7 55.9001 116.149 55.9001C111.841 55.9001 94.6378 53.4507 97.0399 51.0159C98.0216 50.0207 99.3077 49.3547 100.447 48.5268C100.876 48.215 101.313 47.9028 101.692 47.5303C102.241 46.9906 102.574 47.2756 102.916 47.7717C103.366 48.4238 103.836 49.061 104.341 49.7499C105.528 50.327 106.63 51.0665 107.828 51.3353Z" fill="#E7EAEE"/>
<path d="M101.814 40.9653C102.505 40.8744 103.217 40.9045 103.917 40.9458C105.601 41.0451 107.283 41.195 108.967 41.2954C110.86 41.4083 112.641 41.9676 114.362 42.7495C117.034 43.963 119.609 45.3017 121.422 47.853C122.293 49.0792 123.35 50.1635 124.345 51.2915C124.816 51.8263 125.011 52.4142 125.09 53.1479C125.31 55.2001 125.661 57.2371 125.925 59.2847C126.077 60.4645 126.132 61.6582 126.287 62.8374C126.413 63.7934 126.656 64.7324 126.786 65.688C126.872 66.32 127.064 66.3189 127.396 65.8833C128.183 64.8514 129.357 64.71 130.462 64.4497C131.241 64.2661 131.912 64.5662 132.33 65.3052C132.758 66.0617 132.442 66.7872 132.017 67.3569C131.053 68.6482 129.97 69.8418 128.984 71.1167C128.421 71.8453 127.841 72.6038 127.487 73.4487C127.272 73.963 127.486 74.6675 127.487 75.2866C127.493 77.4855 127.448 79.6856 127.499 81.8833C127.576 85.216 126.857 88.3965 126.015 91.5767C125.407 93.8734 124.601 96.0802 123.681 98.2505C123.306 99.1353 122.743 99.6327 121.722 99.5249C121.066 99.4558 120.377 99.5675 119.725 99.7085C119.471 99.7633 119.069 99.8794 119.319 100.5C119.892 101.924 120.362 103.41 121.736 104.211C122.354 104.572 123.089 104.846 123.789 104.897C127.213 105.146 130.655 105.475 133.788 106.974C135.932 108 137.948 109.413 139.831 110.914C142.542 113.074 144.307 116.109 145.993 119.146C147.255 121.419 148.443 123.742 149.562 126.096C151.328 129.816 152.829 133.655 154.162 137.571C154.723 139.219 155.486 140.794 156.188 142.386C156.641 143.412 156.386 144.403 155.455 145.05C152.864 146.853 149.975 147.828 146.956 148.503C145.466 148.837 144.028 149.413 142.552 149.822C140.987 150.255 139.412 150.655 137.825 150.982C137.526 151.043 136.985 150.793 136.835 150.519C135.626 148.308 134.471 146.065 133.346 143.806C133.25 143.612 133.487 143.238 133.569 142.947C133.79 143.072 134.113 143.14 134.216 143.333C135.225 145.243 136.228 147.157 137.166 149.105C137.543 149.889 138.118 150.117 138.812 149.914C141.211 149.211 143.592 148.442 145.979 147.7C146.218 147.625 146.46 147.559 146.743 147.444C148.708 146.717 150.647 146.083 152.544 145.332C153.388 144.997 154.127 144.385 154.95 143.98C155.457 143.731 155.403 143.455 155.236 143.02C153.71 139.041 152.288 135.015 150.65 131.087C149.49 128.303 148.074 125.631 146.716 122.94C145.84 121.204 144.983 119.434 143.9 117.839C142.552 115.853 141.172 113.811 139.46 112.193C137.032 109.898 134.197 108.125 130.892 107.466C128.74 107.037 126.563 106.748 124.403 106.362C123.291 106.163 122.166 106.015 121.184 105.313C119.82 104.338 119.245 102.839 118.68 101.344C118.42 100.657 118.28 100.172 117.382 100.544C116.946 100.725 116.309 100.579 115.827 100.396C114.719 99.9747 114.259 100.368 113.816 101.419C113.366 102.49 112.996 103.613 112.417 104.601C112.164 105.032 111.479 105.417 110.986 105.423C109.252 105.445 107.568 105.557 105.899 106.16C104.667 106.605 103.9 105.607 103.195 104.75C102.548 103.963 101.979 103.105 101.347 102.303C100.908 101.747 100.359 101.244 99.624 101.423C98.6898 101.651 98.8639 102.641 98.7988 103.28C98.6056 105.174 97.893 106.745 96.5645 108.014C96.168 108.393 96.0848 108.641 96.5459 109.042C98.782 110.984 101.058 112.883 103.198 114.937C104.615 116.296 106.258 117.211 107.896 118.176C108.537 118.554 109.026 118.594 109.689 118.044C112.256 115.917 114.973 113.983 117.476 111.78C118.688 110.713 119.573 109.229 120.554 107.892C120.918 107.396 121.172 106.79 121.886 106.941C122.039 106.974 122.276 107.493 122.209 107.594C120.961 109.459 119.798 111.418 118.063 112.849C116.317 114.29 114.508 115.651 112.715 117.03C111.703 117.808 110.704 118.621 109.622 119.279C109.224 119.521 108.523 119.548 108.095 119.352C105.204 118.029 102.603 116.215 100.268 113.996C98.8191 112.62 97.3683 111.245 95.9531 109.833C95.5433 109.424 95.3143 109.345 94.8496 109.792C93.1528 111.422 91.1008 112.475 88.9463 113.21C85.3063 114.453 81.6108 115.519 77.9434 116.674C75.8939 117.32 73.7991 117.857 71.8213 118.692C68.8116 119.963 66.1378 121.762 64.7178 125.024C63.6896 127.386 61.9912 129.75 61.9277 132.417C61.8668 134.982 61.7536 137.549 61.7734 140.114C61.7875 141.932 61.9106 143.759 62.1182 145.565C62.3894 147.925 62.8291 150.264 63.1279 152.621C63.4084 154.833 63.6073 157.057 63.8271 159.278C63.9079 160.094 63.9899 160.915 63.9893 161.733C63.9887 162.403 64.3045 162.279 64.6826 162.143C68.4697 160.783 72.2439 159.38 76.0498 158.08C78.1201 157.372 80.8609 156.729 82.6387 155.35C83.7071 154.521 84.5048 153.653 84.4434 152.02C84.3615 149.849 84.7433 147.661 84.71 145.485C84.6722 143.027 84.4415 140.568 84.1982 138.121C84.1051 137.184 83.7099 136.283 83.5283 135.35C83.4733 135.067 83.6742 134.73 83.7578 134.417C83.9704 134.63 84.3069 134.806 84.375 135.06C84.8784 136.939 85.604 138.751 85.627 140.765C85.6542 143.156 85.9493 145.547 85.9209 147.935C85.8927 150.302 85.6041 152.666 85.4346 155.031C85.3695 155.939 85.294 156.848 85.2646 157.758C85.1926 159.992 85.0585 162.229 85.1064 164.46C85.1865 168.188 85.2397 171.942 86.1592 175.57C86.6132 177.361 87.2911 179.125 88.0996 180.777C89.8784 184.412 91.4267 188.147 92.5674 192.038C93.4577 195.075 94.0764 198.201 94.7705 201.298C95.1662 203.064 95.6207 204.838 95.7832 206.634C96.0309 209.373 96.0681 212.133 96.1514 214.885C96.1751 215.671 96.0284 216.461 95.9951 217.25C95.9238 218.942 95.8938 220.636 95.7998 222.326C95.7844 222.601 95.5285 222.862 95.3838 223.129C95.2977 222.865 95.1413 222.603 95.1357 222.337C95.0622 218.838 95.0695 215.336 94.9258 211.84C94.8613 210.273 94.5187 208.717 94.2793 207.16C93.9976 205.327 93.7375 203.488 93.3809 201.671C93.0236 199.851 92.5212 198.062 92.1494 196.245C91.3852 192.508 89.9067 189.023 88.6895 185.448C88.3348 184.406 87.6426 183.496 87.1719 182.491C85.8748 179.722 84.7697 176.871 84.2373 173.824C84.0281 172.626 83.941 171.398 83.8867 170.18C83.7899 168.008 83.6692 165.83 83.7275 163.66C83.7888 161.382 84.0528 159.109 84.2139 156.833C84.2246 156.681 84.1522 156.48 84.0498 156.375C83.9928 156.317 83.7541 156.363 83.6631 156.443C81.6693 158.195 78.5454 158.861 76.1523 159.689C73.54 160.592 70.9339 161.516 68.3105 162.383C67.8049 162.55 67.5852 162.796 67.6406 163.313C67.8069 164.866 67.9778 166.418 68.1592 167.968C68.3232 169.37 68.4468 170.781 68.6885 172.169C69.116 174.625 69.5037 177.098 70.1182 179.505C71.0424 183.126 72.0633 186.726 73.2041 190.278C74.0417 192.886 75.1547 195.397 76.1143 197.963C77.2292 200.946 78.2954 203.948 79.4111 206.93C80.6624 210.274 81.9184 213.617 83.2275 216.937C83.7856 218.352 84.4842 219.707 85.1162 221.09C85.1849 221.241 85.2908 221.406 85.2773 221.555C85.2579 221.77 85.1452 221.976 85.0723 222.185C84.9295 222.064 84.732 221.974 84.6523 221.818C83.8836 220.315 83.0786 218.828 82.3945 217.283C81.5785 215.44 80.8661 213.547 80.1182 211.671C79.2985 209.616 78.4799 207.56 77.6787 205.497C76.7073 202.995 75.715 200.5 74.8027 197.975C73.5413 194.483 72.2918 190.984 71.1367 187.453C69.8373 183.48 68.8482 179.414 68.1621 175.274C67.7884 173.019 67.4419 170.758 67.127 168.494C66.912 166.948 66.7818 165.39 66.5957 163.84C66.521 163.218 66.1655 163.004 65.5859 163.186C64.8672 163.412 64.1526 163.662 63.4219 163.834C62.8593 163.967 62.7771 163.571 62.7852 163.083C62.8051 161.868 62.8813 160.643 62.7686 159.439C62.6387 158.053 62.3367 156.684 62.0986 155.309C61.8514 153.882 61.5741 152.459 61.3418 151.029C61.1124 149.616 60.8255 148.203 60.7354 146.779C60.5521 143.881 60.4876 140.976 60.3682 138.074C60.3183 136.863 60.1541 135.647 60.2158 134.444C60.3621 131.594 61.3998 128.786 62.583 126.152C63.5034 124.103 64.3783 122.04 66.0791 120.525C68.4923 118.375 71.2398 116.971 74.3545 116.289C75.712 115.991 77.0157 115.435 78.3584 115.052C80.5641 114.423 82.8027 113.911 84.9893 113.219C87.8111 112.326 90.6203 111.291 92.9814 109.406C94.4894 108.202 96.188 107.065 96.9326 105.087C97.2941 104.127 97.4784 103.092 97.6982 102.08C97.7196 101.982 97.445 101.74 97.2715 101.682C96.658 101.477 95.7269 101.525 95.4678 101.106C94.9346 100.243 94.6064 99.159 94.4824 98.1284C94.3885 97.3463 94.2796 96.9334 93.4814 96.7661C92.6438 96.5904 92.0193 96.0088 91.6123 95.2007C90.5859 93.1621 89.2266 91.3634 87.8037 89.6255C87.1422 88.8175 87.3011 88.0525 87.5898 87.2183C88.5058 84.5722 89.515 81.9564 90.3125 79.272C90.9134 77.2494 90.8721 75.1637 89.9229 73.2026C89.8313 73.0135 89.619 72.817 89.4268 72.7622C87.225 72.1344 85.3836 71.0807 84.7441 68.564C84.5258 67.7046 84.5946 66.8522 85.2227 66.2202C85.8617 65.5771 86.6439 65.3403 87.5518 65.6909C88.447 66.0366 88.4399 65.9545 88.5654 64.9468C88.7267 63.6516 88.9906 62.3688 89.2461 61.0884C89.5717 59.4564 89.8997 57.8233 90.2871 56.2065C90.913 53.5944 92.0496 51.2214 93.5293 49.0259C94.2702 47.9266 94.9225 46.7267 95.8223 45.7896C96.743 44.8307 97.9393 44.1659 98.9736 43.3179C99.6333 42.777 100.203 42.1177 100.844 41.5493C101.127 41.2978 101.471 41.0106 101.814 40.9653ZM133.248 134.023C133.348 134.243 133.552 134.475 133.53 134.681C133.328 136.603 133.096 138.521 132.854 140.438C132.576 142.634 132.092 144.821 132.035 147.022C131.961 149.868 132.206 152.726 132.341 155.577C132.43 157.456 132.577 159.331 132.68 161.209C132.861 164.507 133.051 167.806 133.192 171.106C133.292 173.428 133.249 175.758 133.393 178.077C133.539 180.452 133.842 182.817 134.063 185.188C134.193 186.582 134.312 187.979 134.407 189.376C134.488 190.554 134.601 191.738 134.569 192.915C134.508 195.196 134.279 197.474 134.27 199.754C134.265 200.945 134.647 202.133 134.726 203.331C134.785 204.23 134.639 205.143 134.585 206.141C134.238 208.039 134.101 209.929 133.494 211.635C132.706 213.85 130.881 215.188 128.775 215.869C126.462 216.616 124.08 217.141 121.712 217.69C120.925 217.872 120.091 217.837 119.278 217.888C116.351 218.072 113.422 218.244 110.495 218.435C108.898 218.539 107.304 218.695 105.706 218.788C104.174 218.877 102.639 218.978 101.106 218.954C99.8839 218.934 98.6627 218.744 97.4443 218.599C97.2953 218.581 97.1672 218.373 97.0293 218.253C97.1369 218.132 97.2295 217.928 97.3545 217.904C97.8433 217.808 98.3561 217.662 98.8359 217.727C101.547 218.092 104.236 217.854 106.93 217.537C108.348 217.37 109.774 217.272 111.198 217.169C113.866 216.978 116.542 216.884 119.2 216.604C122.578 216.248 125.919 215.615 129.08 214.26C130.907 213.477 132.164 211.987 132.641 210.022C133.182 207.793 133.757 205.527 133.538 203.18C133.413 201.835 133.065 200.498 133.06 199.157C133.052 197.159 133.322 195.161 133.35 193.162C133.366 191.978 133.148 190.791 133.029 189.606C132.917 188.481 132.833 187.352 132.675 186.234C132.262 183.31 132.103 180.376 132.149 177.421C132.17 176.123 132.026 174.822 131.993 173.521C131.922 170.655 131.9 167.787 131.808 164.921C131.734 162.651 131.576 160.383 131.473 158.114C131.4 156.513 131.375 154.909 131.292 153.309C131.2 151.52 130.917 149.727 130.992 147.949C131.069 146.127 131.48 144.319 131.741 142.505C131.942 141.116 132.161 139.728 132.328 138.334C132.477 137.094 132.542 135.842 132.704 134.603C132.732 134.388 133.059 134.215 133.248 134.023ZM72.6289 194.138C72.6814 194.076 72.8911 194.077 72.9658 194.136C73.0563 194.208 73.1322 194.376 73.125 194.496C73.0256 196.134 72.9431 197.775 72.7891 199.408C72.6678 200.693 72.3959 201.964 72.2949 203.25C72.1744 204.784 72.184 206.33 72.1016 207.869C72.0072 209.631 72.5183 211.237 73.5205 212.574C74.5348 213.927 75.6952 215.203 76.9668 216.288C77.7158 216.927 78.8053 217.131 79.7441 217.525C79.8186 217.556 79.945 217.503 79.9912 217.549C80.2504 217.81 80.4923 218.09 80.7402 218.363C80.3938 218.386 80.0124 218.518 79.707 218.413C78.5451 218.009 77.4076 217.528 76.2178 217.031C73.6642 215.05 71.6721 212.664 70.9453 209.445C70.6429 208.105 70.8019 206.619 70.9189 205.215C71.0738 203.358 71.3924 201.516 71.6436 199.667C71.6741 199.442 71.7378 199.221 71.7578 198.996C71.8787 197.631 71.9676 196.263 72.127 194.904C72.1592 194.629 72.4332 194.373 72.6289 194.138ZM183.634 91.9888C184.268 92.004 184.682 92.7193 184.777 93.4692C184.828 93.8668 184.881 94.2649 184.953 94.6587C184.985 94.8316 185.065 94.9949 185.123 95.1626C185.238 95.0189 185.345 94.8665 185.47 94.7329C185.846 94.33 186.181 93.8545 186.623 93.5552C187.231 93.1438 187.924 93.601 187.875 94.3911C187.807 95.4828 187.726 96.5929 187.474 97.6489C187.02 99.5479 186.433 101.413 185.909 103.293C185.878 103.405 185.908 103.536 185.909 103.658C186.027 103.592 186.203 103.557 186.254 103.455C186.584 102.786 186.937 102.122 187.188 101.419C187.592 100.285 188.203 99.3129 189.088 98.5454C189.294 98.3669 189.627 98.3489 189.902 98.2573C189.982 98.524 190.181 98.8245 190.122 99.0522C189.696 100.7 189.327 102.378 188.734 103.962C187.241 107.953 185.645 111.901 184.076 115.861C183.169 118.149 182.117 120.384 181.348 122.72C180.563 125.103 180.106 127.6 179.394 130.011C178.639 132.568 177.768 135.088 176.919 137.614C175.628 141.452 174.466 145.348 172.957 149.091C171.777 152.016 170.242 154.801 168.697 157.544C167.54 159.6 166.214 161.576 164.773 163.426C163.927 164.513 162.726 165.306 161.654 166.191C159.939 167.608 157.989 168.512 155.856 169.023C153.401 169.611 151.222 169.154 149.39 167.283C148.28 166.149 147.192 164.993 146.051 163.801C144.193 160.716 142.379 157.675 140.561 154.637C140.501 154.538 140.335 154.469 140.33 154.379C140.313 154.051 140.344 153.721 140.356 153.391C140.594 153.561 140.907 153.676 141.058 153.908C142.78 156.561 144.414 159.28 146.2 161.884C147.705 164.078 149.409 166.126 151.69 167.5C152.93 168.246 154.293 168.08 155.645 167.796C157.677 167.37 159.496 166.343 161.191 165.23C162.677 164.255 164.036 162.903 165.111 161.445C167.401 158.342 169.367 154.994 170.959 151.43C172.453 148.087 173.579 144.607 174.592 141.071C175.632 137.44 176.901 133.88 178.053 130.284C178.418 129.144 178.744 127.99 179.062 126.834C179.859 123.936 180.813 121.107 182.007 118.349C183.323 115.309 184.425 112.167 185.647 109.082C186.126 107.873 186.715 106.712 187.19 105.502C187.858 103.803 188.473 102.081 189.096 100.363C189.171 100.155 189.15 99.9092 189.174 99.6812C188.977 99.835 188.701 99.9458 188.597 100.151C188.16 101.012 187.814 101.925 187.36 102.775C186.939 103.564 186.453 104.323 185.927 105.041C185.777 105.245 185.389 105.26 185.11 105.363C185.009 104.994 184.776 104.601 184.834 104.262C184.979 103.411 185.274 102.588 185.477 101.746C186.002 99.5617 186.518 97.3748 187.013 95.1831C187.056 94.9908 186.914 94.7532 186.858 94.5366C186.695 94.6425 186.503 94.7186 186.374 94.8589C184.965 96.395 184.332 98.3445 183.737 100.312C183.391 101.457 183.06 102.608 182.685 103.743C182.622 103.931 182.367 104.049 182.201 104.2C182.079 104.004 181.821 103.775 181.855 103.617C182.133 102.359 182.447 101.108 182.787 99.8667C183.2 98.3616 183.72 96.8842 184.05 95.3608C184.191 94.71 183.98 93.9714 183.897 93.2769C183.885 93.1714 183.655 92.9871 183.604 93.0112C183.409 93.1086 183.173 93.2382 183.083 93.4243C182.531 94.5689 181.905 95.6929 181.512 96.8979C180.83 98.9892 180.301 101.135 179.707 103.257C179.436 104.224 179.168 105.192 178.887 106.156C178.849 106.286 178.742 106.394 178.667 106.512C178.511 106.364 178.244 106.235 178.216 106.064C177.803 103.563 175.934 102.731 173.968 102.091C173.559 101.958 172.727 102.179 172.578 102.49C172.358 102.952 172.387 103.76 172.647 104.207C173.108 104.996 173.916 105.558 174.414 106.331C176.8 110.038 177.1 113.955 175.051 117.891C174.106 119.707 172.754 121.286 171.688 123.04C169.723 126.275 167.804 129.543 165.919 132.831C164.012 136.155 162.117 139.49 160.322 142.881C159.566 144.31 159.037 145.877 158.48 147.412C157.922 148.951 157.771 149.06 156.506 148.126C156.022 147.77 155.634 147.265 155.234 146.798C155.163 146.714 155.248 146.483 155.261 146.32C155.475 146.358 155.741 146.327 155.893 146.45C156.232 146.724 156.542 147.051 156.813 147.4C157.176 147.866 157.312 147.705 157.502 147.247C158.319 145.28 159.047 143.26 160.027 141.385C161.664 138.255 163.439 135.201 165.209 132.149C167.083 128.917 169.001 125.712 170.938 122.52C171.77 121.151 172.682 119.834 173.585 118.514C175.234 116.102 175.819 113.469 175.202 110.555C174.748 108.41 173.682 106.659 172.143 105.189C171.145 104.235 171.105 102.108 172.241 101.522C173.08 101.089 174.026 100.951 174.983 101.451C176.076 102.021 177.165 102.561 177.917 103.624C178.019 103.767 178.196 103.852 178.339 103.963C178.408 103.782 178.484 103.604 178.544 103.419C179.15 101.573 179.707 99.7075 180.371 97.8843C180.958 96.2732 181.608 94.6803 182.346 93.1401C182.589 92.6325 183.203 91.9785 183.634 91.9888ZM126.812 109.367C126.734 109.618 126.711 109.912 126.569 110.115C125.567 111.553 124.591 113.017 123.504 114.384C122.718 115.372 121.853 116.328 120.885 117.112C119.205 118.472 117.478 119.794 115.659 120.938C113.67 122.19 111.582 123.283 109.481 124.324C108.44 124.839 107.305 124.773 106.274 124.072C103.158 121.952 100.12 119.725 97.5303 116.91C96.8138 116.131 96.1518 115.292 95.5254 114.432C95.3773 114.229 95.4738 113.831 95.458 113.523C95.7533 113.581 96.1554 113.531 96.3252 113.715C97.0026 114.45 97.5563 115.312 98.252 116.025C99.2156 117.012 100.23 117.954 101.288 118.829C102.839 120.11 104.445 121.321 106.038 122.547C106.428 122.847 106.879 123.061 107.267 123.365C108.295 124.171 109.146 123.311 109.927 122.933C111.963 121.947 113.911 120.761 115.937 119.609C118.273 117.909 120.695 116.409 122.594 114.245C123.746 112.931 124.711 111.437 125.758 110.023C125.858 109.888 125.916 109.682 126.044 109.615C126.28 109.491 126.554 109.445 126.812 109.367ZM177.509 107.572C177.868 107.971 178.204 108.392 178.589 108.854C178.962 109.898 179.291 110.902 178.884 111.96C178.804 112.166 178.625 112.331 178.491 112.514C178.394 112.293 178.21 112.07 178.214 111.851C178.233 110.775 178.165 109.728 177.641 108.765C177.47 108.451 177.312 108.129 177.178 107.797C177.168 107.773 177.491 107.553 177.509 107.572ZM180.979 111.376C180.911 109.896 183.182 108.053 184.468 108.554C184.667 108.632 184.791 108.922 184.949 109.114C184.745 109.223 184.549 109.393 184.334 109.427C183.998 109.48 183.649 109.442 183.262 109.487C182.699 110.2 182.183 110.87 181.658 111.534C181.533 111.692 181.379 111.827 181.238 111.972C181.148 111.774 180.989 111.579 180.979 111.376ZM107.017 41.8599C105.495 41.7554 103.96 41.8564 102.432 41.8345C101.909 41.827 101.626 42.0011 101.287 42.4771C100.837 43.1084 100.166 43.6169 99.502 44.0229C97.8442 45.0373 96.3851 46.2289 95.2646 47.9038C93.7931 50.1036 92.4447 52.3669 91.5635 54.8901C90.8837 56.8366 90.4132 58.8364 90.251 60.9302C90.0973 62.9142 89.2708 64.8216 89.7441 66.8872C90.0363 68.1621 90.0631 69.5081 90.4004 70.7661C91.0136 73.0531 91.6579 75.2791 91.5381 77.7339C91.4162 80.2285 90.5688 82.4087 89.5869 84.77C89.1585 85.7596 88.7527 86.761 88.292 87.7339C88.0555 88.2334 88.0706 88.671 88.3789 89.0952C88.6654 89.4895 89.0004 89.8458 89.2832 90.2427C90.085 91.3682 90.9824 92.441 91.6328 93.6567C92.2983 94.9009 93.0692 95.8189 94.4678 96.0825C95.0355 96.1895 95.2504 96.6637 95.3184 97.2876C95.4129 98.1556 95.5678 99.036 95.8438 99.8569C96.0414 100.444 96.5634 100.833 97.2285 100.758C98.0203 100.669 98.8048 100.452 99.5957 100.432C100.055 100.421 100.651 100.546 100.96 100.855C101.956 101.853 102.856 102.956 103.775 104.036C104.403 104.772 104.905 105.572 106.119 105.132C107.427 104.658 108.803 104.446 110.222 104.542C111.523 104.631 112.031 104.17 112.432 102.839C112.552 102.439 112.619 102.014 112.789 101.639C113.065 101.033 113.318 100.376 113.74 99.8921C114.385 99.1527 115.221 99.2663 116.077 99.5835C117.041 99.9405 117.541 99.7215 117.957 98.8062C118.133 98.4189 118.192 98.4245 118.514 98.6724C118.774 98.8727 119.185 98.9656 119.517 98.9399C120.338 98.8765 121.161 98.7564 121.966 98.5767C122.257 98.5117 122.642 98.2704 122.741 98.0093C123.549 95.8882 124.392 93.7738 125.044 91.5981C125.944 88.5923 126.614 85.5144 126.612 82.3394C126.611 79.6733 126.517 77.007 126.447 74.3413C126.41 72.92 126.401 71.4929 126.264 70.0806C126.027 67.6396 125.711 65.2065 125.408 62.7729C125.238 61.4072 125.032 60.0464 124.837 58.6841C124.569 56.8125 124.305 54.9399 124.022 53.0708C123.964 52.685 123.938 52.2204 123.72 51.9468C122.512 50.4354 121.324 48.8912 119.979 47.519C119.027 46.5476 117.872 45.7755 116.747 45.0103C113.796 43.0023 110.491 42.0984 107.017 41.8599ZM118.014 85.6284C118.429 85.7313 118.802 85.8788 119.175 86.0269C118.997 86.3382 118.873 86.7074 118.633 86.9526C116.625 89.0063 114.178 90.2061 111.457 90.8022C111.028 90.8963 110.534 90.7076 110.078 90.6089C109.98 90.5876 109.832 90.3074 109.85 90.2876C110.029 90.0883 110.221 89.7943 110.442 89.7593C113.17 89.3328 115.459 88.0244 117.436 86.0591C117.591 85.905 117.791 85.8008 118.014 85.6284ZM101.692 47.5308C102.241 46.9911 102.574 47.2758 102.916 47.772C103.366 48.4239 103.836 49.0609 104.341 49.7495C105.528 50.3267 106.63 51.0667 107.828 51.3354C109.147 51.6313 110.577 51.9906 111.91 51.2349C112.361 50.9789 112.786 50.6636 113.197 50.3403C113.448 50.1431 113.674 49.8979 113.871 49.6411C115.437 47.6028 116.592 47.907 118.748 49.2378C121.506 50.9404 122.511 53.8465 123.482 56.7378C124.033 58.3763 124.351 60.106 124.698 61.811C124.899 62.7954 124.983 63.8107 125.058 64.8169C125.151 66.0836 125.193 67.3554 125.237 68.6255C125.305 70.557 125.278 72.4962 125.435 74.4194C125.592 76.3632 125.294 78.2368 124.879 80.0952C124.401 82.2353 122.843 83.2677 120.955 83.7485C119.885 84.021 118.752 84.0328 117.646 84.1343C114.722 84.4024 111.816 84.7803 108.992 85.6548C108.116 85.9258 107.279 85.8003 106.545 85.2905C105.062 84.2614 103.387 83.8856 101.68 83.5972C98.4947 83.0593 95.4709 82.1516 93.1367 79.6216C92.5207 78.9538 92.1255 78.2386 92.165 77.2329C92.2756 74.4301 91.6038 71.6966 91.3799 68.9312C91.1338 65.8915 91.242 62.8375 92.1318 59.8101C93.1243 56.4336 94.6381 53.4509 97.04 51.0161C98.0218 50.021 99.3078 49.3547 100.447 48.5269C100.876 48.2151 101.314 47.9033 101.692 47.5308ZM102.933 49.5229C102.104 48.4015 102.142 48.3541 101.114 49.0747C99.9842 49.8668 98.7426 50.5438 97.7715 51.5132C95.428 53.8527 93.8883 56.6656 92.9648 59.9946C92.1326 62.9949 92.0823 65.9698 92.2188 68.978C92.3296 71.4209 92.7025 73.8577 93.0742 76.2778C93.2465 77.3994 93.3836 78.5717 94.3242 79.4429C96.0213 81.0146 98.0324 81.8601 100.194 82.3101C102.549 82.8003 104.922 83.1479 107.043 84.4712C107.476 84.7415 108.132 84.8008 108.649 84.7163C111.019 84.3291 113.369 83.8117 115.739 83.4292C117.356 83.1683 119.024 83.1918 120.614 82.8276C121.879 82.5381 123.301 82.0898 123.711 80.5444C124.109 79.0427 124.453 77.4813 124.508 75.9341C124.597 73.4058 124.46 70.8659 124.364 68.3335C124.301 66.6654 124.088 65.0025 124.04 63.3345C123.959 60.5054 123.001 57.9207 122.038 55.2173C121.894 54.858 121.745 54.5003 121.605 54.1392C120.694 51.79 119.085 50.1414 116.881 49.1499C116.539 48.9959 115.943 49.0852 115.634 49.313C115.232 49.6099 115.016 50.1723 114.689 50.5942C113.635 51.9561 112.398 53.0218 110.594 52.854C109.477 52.7501 108.349 52.6001 107.268 52.3042C105.573 51.8403 104.029 51.0072 102.933 49.5229ZM109.077 78.3384C109.388 78.342 109.699 78.4165 110.01 78.4585C109.75 78.6645 109.49 78.8705 109.188 79.1216C108.173 79.1969 107.2 79.258 106.23 79.229C106.043 79.2229 105.865 78.8631 105.683 78.6665C105.92 78.562 106.153 78.3791 106.395 78.3677C107.287 78.3253 108.183 78.328 109.077 78.3384ZM99.1934 61.7231C100.773 61.7211 102.31 61.8786 103.772 62.6147C105.335 63.4015 106.194 64.5668 106.038 66.438C106.019 66.6682 106.129 66.9105 106.179 67.147C106.312 66.9859 106.438 66.8177 106.579 66.6646C107.358 65.8179 108.289 65.8405 109.292 66.103C109.52 66.1624 109.932 66.0753 110.042 65.9038C111.093 64.2681 112.623 63.5072 114.407 63.1685C114.646 63.1232 114.879 63.05 115.201 62.9897C117.09 62.7913 118.808 63.0364 120.273 64.2319C123.408 66.7902 123.129 72.7067 120.316 75.0815C118.803 76.3596 117.303 76.8492 115.216 76.0454C113.484 75.3785 112.081 74.4193 111.048 72.8423C110.166 71.4963 109.835 69.9506 109.684 68.3794C109.554 67.0362 108.775 66.5247 107.533 67.106C106.708 67.4923 106.235 68.0739 106.001 69.0405C105.505 71.0892 104.572 72.8952 102.86 74.1724C101.659 75.0687 100.285 74.8287 99.0254 74.6714C98.0409 74.5484 97.0948 73.8957 96.1816 73.3823C94.8893 72.6556 94.3948 71.2543 93.96 69.9438C93.5145 68.6014 93.3751 67.1882 93.8916 65.7349C94.7376 63.3547 96.7869 61.7264 99.1934 61.7231ZM117.451 64.1646C116.202 63.8167 114.921 63.9358 113.741 64.3032C112.631 64.649 111.505 65.1307 110.84 66.3394C110.233 67.4424 110.683 68.4429 110.875 69.4868C111.474 72.7479 113.487 74.4685 116.494 75.0981C116.841 75.1708 117.218 75.329 117.539 75.2544C118.669 74.9924 119.621 74.3813 120.353 73.4253C121.205 72.3112 121.714 71.0358 121.762 69.6196C121.806 68.2996 121.18 67.1449 120.49 66.1265C119.803 65.1116 118.87 64.2761 117.451 64.1646ZM100.009 62.8413C98.6292 62.6965 97.2481 62.8387 96.1562 63.981C94.8041 65.3956 94.1398 67.0489 94.627 69.019C94.9327 70.2556 95.3903 71.4311 96.4561 72.2827C97.3405 72.9893 98.2869 73.2768 99.3506 73.5112C100.868 73.8457 102.065 73.4777 103.065 72.3071C103.371 71.9492 103.601 71.5197 103.952 71.0327C104.661 69.5886 105.176 68.0945 104.988 66.4331C104.885 65.5136 104.646 64.7333 103.806 64.145C102.634 63.3244 101.337 62.9807 100.009 62.8413ZM86.8359 66.4272C85.8525 66.4203 85.1272 67.3432 85.4531 68.3091C85.7363 69.1482 86.0473 69.9926 86.9316 70.4575C87.77 70.8982 88.532 71.4978 89.4141 71.937C89.4686 71.8134 89.5873 71.6763 89.5674 71.5679C89.3559 70.433 89.1633 69.2908 88.8779 68.1753C88.7219 67.5656 88.8785 66.707 88.0107 66.5083C87.6314 66.4215 87.2285 66.43 86.8359 66.4272ZM130.942 65.355C129.843 65.2735 128.911 65.7584 127.966 66.3257C127.291 66.731 126.794 67.0712 126.971 68.1411C127.028 69.1968 127.085 70.2524 127.143 71.3081C127.146 71.3679 127.122 71.4417 127.147 71.4858C127.218 71.6078 127.308 71.7179 127.39 71.8325C127.471 71.7569 127.563 71.6907 127.632 71.604C128.143 70.9559 128.669 70.3192 129.152 69.6489C129.941 68.5551 130.713 67.4469 131.468 66.3276C131.913 65.6677 131.471 65.3941 130.942 65.355ZM114.552 66.1089C115.085 65.4906 116.01 65.5909 116.389 66.3081C117.071 67.6 116.192 69.1345 114.726 69.0894C114.003 68.3288 113.936 66.8239 114.552 66.1089ZM100.309 64.7905C100.827 64.4661 101.198 64.617 101.529 65.1587C101.838 66.1106 101.635 67.0963 100.947 67.6274C100.747 67.7818 100.241 67.8299 100.1 67.686C99.3043 66.8752 99.1705 65.5028 100.309 64.7905ZM167.059 44.2681C168.283 44.1659 169.509 44.1943 170.734 44.2769C171.398 44.3214 172.065 44.3406 172.727 44.4106C174.161 44.5629 175.548 44.9018 176.88 45.5103C177.81 45.9353 178.748 46.333 179.64 46.8472C180.664 47.438 181.534 48.2225 182.356 49.0747C182.733 49.4649 183.022 49.9221 183.279 50.4028C183.433 50.6898 183.57 50.9904 183.75 51.2583C184.797 52.8167 185.023 54.5526 184.769 56.3872C184.709 56.8198 184.577 57.2417 184.611 57.687C184.405 58.5759 184.203 59.4681 183.696 60.2378C183.299 60.8414 182.867 61.4169 182.331 61.8979C182.145 62.0647 181.958 62.2327 181.79 62.4185C181.426 62.8213 180.982 63.1101 180.562 63.437C179.655 64.1414 178.645 64.6385 177.646 65.1616C177.522 65.2265 177.39 65.2787 177.257 65.3208C176.722 65.491 176.185 65.6554 175.648 65.8208C175.044 66.0069 174.443 66.2043 173.834 66.3735C172.881 66.6387 171.893 66.6432 170.922 66.7778C170.785 66.7968 170.64 66.7857 170.503 66.7612C169.467 66.5775 168.417 66.5219 167.376 66.3862C167.203 66.3638 167.033 66.3171 166.862 66.2798C165.697 66.0263 164.523 65.801 163.393 65.3979C163.11 65.2973 162.854 65.32 162.59 65.4819C162.289 65.6666 161.969 65.8182 161.654 65.978C160.988 66.3157 160.409 66.7909 159.81 67.2339C159.639 67.3596 159.46 67.4738 159.279 67.5815C159.139 67.6648 158.899 67.5394 158.862 67.3657C158.817 67.1529 158.772 66.9421 158.832 66.7183C159.169 65.4685 159.157 64.1895 159.117 62.8188C158.213 61.9241 157.661 60.8059 156.95 59.811C156.929 59.7817 156.909 59.751 156.895 59.7183C156.338 58.4572 155.794 57.1964 155.53 55.8179C155.376 55.013 155.383 54.2285 155.5 53.4302C155.558 53.0331 155.583 52.6297 155.658 52.2368C155.89 51.0306 156.453 49.98 157.113 48.981C157.312 48.6805 157.54 48.4004 157.733 48.0962C158.458 46.9571 159.48 46.2235 160.67 45.7124C161.445 45.3798 162.24 45.0992 162.998 44.7231C163.091 44.6769 163.194 44.6355 163.296 44.6255C164.55 44.5015 165.803 44.3727 167.059 44.2681ZM159.747 65.9702C159.743 65.9768 159.752 65.9868 159.772 65.9985C159.769 65.9889 159.766 65.9788 159.764 65.9692C159.758 65.9697 159.753 65.9695 159.747 65.9702ZM169.3 44.8735C168.952 44.8725 168.581 44.8556 168.262 44.9702C167.85 45.118 167.438 45.1413 167.022 45.1558C165.897 45.1952 164.795 45.397 163.699 45.6411C162.528 45.9021 161.426 46.3911 160.367 46.9487C159.457 47.428 158.658 48.1044 158.102 49.0298C157.217 50.5026 156.524 52.0437 156.58 53.8442C156.589 54.1359 156.549 54.4289 156.547 54.7212C156.542 55.3071 156.555 55.8956 156.697 56.4653C156.856 57.1021 157.026 57.7371 157.223 58.3618C157.375 58.8462 157.542 59.3331 157.767 59.7837C158.008 60.2682 158.304 60.7282 158.615 61.1685C158.989 61.6965 159.378 62.2193 159.976 62.5073C160.163 62.5981 160.203 62.7866 160.171 62.9712C160.033 63.762 160.011 64.5734 159.793 65.3511C159.737 65.551 159.705 65.7612 159.764 65.9692C159.862 65.9602 159.98 65.9785 160.049 65.9263C160.789 65.3638 161.66 65.0429 162.416 64.5112C162.598 64.3829 162.801 64.3442 163.017 64.4116C163.318 64.5059 163.623 64.5904 163.922 64.6919C165.894 65.3614 167.889 65.9007 169.989 65.8188C170.094 65.8147 170.2 65.8277 170.305 65.8267C171.46 65.8139 172.613 65.793 173.754 65.5444C174.511 65.3794 175.24 65.1285 175.97 64.8774C177.68 64.289 179.247 63.3906 180.686 62.2808C181.8 61.4216 182.607 60.279 183.107 58.9028C183.588 57.5816 183.82 56.2363 183.729 54.8218C183.673 53.973 183.491 53.1543 183.229 52.3618C182.953 51.5316 182.582 50.7361 181.959 50.1128C181.023 49.176 180.094 48.2254 178.915 47.6118C178.07 47.1719 177.219 46.7456 176.371 46.313C175.192 45.9673 174.05 45.4903 172.85 45.2202C172.542 45.1512 172.229 45.0724 171.918 45.0679C171.46 45.0617 171.01 45.0051 170.558 44.9526C170.14 44.9043 169.719 44.8749 169.3 44.8735ZM113.428 61.1372C114.941 59.9627 116.619 59.9317 118.305 60.2017C119.193 60.344 120.052 60.7076 120.91 61.0161C121.097 61.0835 121.222 61.3418 121.375 61.5122C121.173 61.5827 120.953 61.7474 120.772 61.7085C120.012 61.5429 119.258 61.3346 118.511 61.1089C116.361 60.4593 114.496 61.0449 112.817 62.4946C112.543 62.7319 112.264 62.9732 111.958 63.1587C111.805 63.2513 111.584 63.2218 111.394 63.2476C111.437 63.0261 111.406 62.71 111.536 62.5991C112.127 62.0952 112.764 61.6493 113.428 61.1372ZM94.9424 60.9507C97.0121 58.3952 99.7073 58.2889 102.561 58.9263C103.238 59.0777 103.893 59.3426 104.645 59.5552C105.525 59.6069 106.255 59.5097 106.922 58.9478C107.1 58.7975 107.564 59.0164 107.896 59.0659C107.74 59.2538 107.601 59.4609 107.426 59.6265C106.31 60.6793 105.083 60.6061 103.726 60.1675C102.539 59.7841 101.293 59.4878 100.058 59.4077C98.2029 59.2875 96.6163 60.0411 95.376 61.5347C95.2192 61.7234 94.9371 61.7986 94.7129 61.9263C94.7844 61.5966 94.757 61.1797 94.9424 60.9507Z" fill="#00160A"/>
<path d="M109.141 185.449C109.566 184.884 110.226 184.557 110.764 184.862C111.31 185.172 111.84 185.803 112.049 186.416C112.544 187.872 111.919 189.124 110.985 190.192C110.512 190.734 109.926 191.166 109.427 191.686C108.207 192.957 107.119 192.364 106.375 190.958C106.442 190.195 106.309 189.391 106.617 188.876C107.346 187.661 108.286 186.583 109.141 185.449ZM110.676 185.774C110.15 185.518 109.792 185.863 109.63 186.235C109.079 187.498 108.211 188.513 107.45 189.618C107.251 189.907 107.374 190.605 107.575 190.984C107.81 191.425 108.278 191.351 108.674 191.012C108.853 190.859 109.101 190.793 109.403 190.597C110.65 189.741 111.455 188.629 111.402 186.979C111.384 186.402 111.176 186.017 110.676 185.774ZM121.881 177.937C122.384 176.593 123.195 176.143 124.478 176.706C125.558 177.18 126.645 177.756 127.545 178.523C128.327 179.188 128.571 180.329 128.415 181.372C128.24 182.543 127.573 183.006 126.355 183.19C124.613 183.454 121.82 181.728 121.771 179.496C121.767 179.309 121.663 179.124 121.648 178.893C121.753 178.543 121.774 178.223 121.881 177.937ZM123.249 177.583C123.047 178.067 122.714 178.536 122.667 179.036C122.508 180.712 124.234 182.079 125.448 182.255C125.937 182.326 126.552 182.243 126.956 181.976C127.793 181.422 127.446 180.569 127.141 179.857C126.429 178.197 124.863 177.984 123.249 177.583ZM100.494 174.526C101.197 174.283 101.823 174.781 102.421 175.892C102.435 175.917 102.461 175.935 102.524 176.001C102.821 177.456 102.738 178.857 102.199 180.164C101.814 181.096 99.8973 181.614 99.1172 181.294C98.5967 181.081 98.0185 180.925 97.5928 180.576C96.745 179.88 96.6457 178.593 98.0195 178.174C98.9455 177.892 99.2197 177.257 99.2422 176.538C99.2738 175.529 99.6048 174.834 100.494 174.526ZM100.669 175.809C100.434 175.983 100.177 176.318 100.167 176.597C100.123 177.885 99.6495 178.75 98.373 179.06C98.2153 179.099 97.9863 179.679 98.0684 179.797C98.8384 180.907 101.252 180.679 101.659 179.397C101.893 178.658 101.702 177.771 101.702 176.77C101.58 176.583 101.487 176.36 101.329 176.216C101.129 176.036 100.757 175.744 100.669 175.809ZM113.941 164.038C114.714 163.581 115.329 163.878 115.906 164.613C117.227 166.294 116.726 168.25 116.699 170.105C116.684 171.125 116.29 172.138 116.023 173.2C115.423 174.484 114.893 175.765 113.555 176.31C112.241 176.845 110.121 177.021 109.089 175.652C108.477 174.84 108.437 173.762 109.122 172.993C109.889 172.132 110.821 171.357 111.343 170.353C111.865 169.347 111.965 168.104 112.261 166.967C112.557 165.827 112.869 164.671 113.941 164.038ZM114.63 165.518C114.431 165.502 114.154 165.829 114.002 166.068C113.782 166.412 113.644 166.813 113.471 167.371C113.262 168.709 113.12 170.09 112.247 171.172C111.642 171.923 110.958 172.618 110.239 173.251C109.561 173.849 109.444 174.553 110.055 175.19C111.13 176.311 113.737 175.802 114.496 174.267C114.947 173.356 115.331 172.395 115.634 171.419C116.195 169.613 115.848 167.847 115.21 166.134C115.113 165.875 114.841 165.535 114.63 165.518ZM91.0684 158.125C91.5196 157.907 92.2741 157.975 92.7295 158.232C94.2099 159.066 94.881 160.547 95.1094 162.216C95.3089 163.674 94.996 165.092 94.4277 166.43C93.6948 168.155 92.2144 167.936 91.2705 166.913C90.8665 166.475 90.7171 165.78 90.4521 165.112C90.5675 164.379 90.5282 163.637 90.832 163.114C91.3832 162.164 91.2547 161.347 90.8027 160.467C90.7158 160.298 90.7055 160.086 90.6211 159.915C90.2538 159.168 90.4268 158.437 91.0684 158.125ZM91.8857 159.186C91.8397 159.413 91.6836 159.706 91.7656 159.857C92.3866 161.001 92.2453 162.056 91.5947 163.133C91.3896 163.473 91.3787 163.939 91.2715 164.345C91.0782 165.077 91.5937 166.467 92.25 166.678C92.604 166.792 93.1121 166.999 93.4053 166.356C94.3006 164.392 94.5975 162.452 93.3945 160.322C93.0886 160.002 92.801 159.659 92.4678 159.375C92.3221 159.25 92.0827 159.245 91.8857 159.186ZM123.854 155.893C125.263 156.031 126.38 156.682 126.612 158.232C126.706 158.861 127.129 158.865 127.554 158.971C128.362 159.173 129.005 159.869 128.878 160.966C128.786 161.762 128.394 162.086 127.303 162.022C126.573 161.979 125.807 161.898 125.134 161.626C122.956 160.746 122.332 158.874 122.485 156.894C122.543 156.151 123.068 155.847 123.854 155.893ZM124.234 156.995C123.801 156.792 123.289 157.319 123.36 157.817C123.627 159.676 125.655 161.293 127.474 161.147C128.145 161.093 128.06 160.732 127.818 160.363C127.687 160.162 127.374 160.09 127.057 159.87C126.123 159.931 125.677 159.347 125.604 158.497C125.525 157.563 124.863 157.289 124.234 156.995ZM112.86 146.657C113.87 146.028 114.856 145.895 115.912 146.426C116.859 146.903 116.983 147.915 117.267 148.803C117.395 149.205 117.328 149.679 117.473 150.07C117.582 150.365 117.849 150.73 118.114 150.807C119.419 151.185 119.549 151.52 118.728 152.669C118.683 152.732 118.683 152.83 118.619 152.957C117.955 153.544 117.405 154.242 116.697 154.591C115.625 155.12 114.48 154.849 113.437 154.313C111.676 153.409 110.59 152.033 110.699 149.857C110.777 148.307 111.663 147.402 112.86 146.657ZM114.996 147.079C114.065 146.896 112.012 148.628 111.93 149.619C111.819 150.954 112.203 152.091 113.39 152.838C114.503 153.54 115.613 153.946 116.933 153.092C117.051 153.029 117.184 152.985 117.285 152.899C118.124 152.183 118.107 152.192 117.272 151.437C117.041 151.227 116.853 150.895 116.773 150.583C116.559 149.74 116.519 148.83 116.197 148.041C116.021 147.608 115.451 147.168 114.996 147.079ZM73.248 141.097C73.7205 140.592 74.8087 141.255 75.0498 142.112C75.4042 143.372 75.7277 144.644 76.1289 145.888C76.378 146.661 76.2751 147.265 75.7451 147.87C75.3437 148.328 74.9803 148.851 74.7158 149.406C74.0657 150.768 73.1093 151.108 71.6582 149.921C69.7414 148.354 69.9954 146.386 70.6787 144.281C71.1402 142.822 72.3368 142.073 73.248 141.097ZM73.7637 142.351C73.5267 142.469 73.2648 142.552 73.0566 142.711C71.9997 143.52 71.4998 144.725 71.2783 145.983C71.102 146.985 71.0596 148.127 71.8213 148.956C72.1711 149.336 72.7293 149.564 73.2324 149.696C73.3531 149.727 73.6226 149.095 73.8398 148.78C74.1923 148.269 74.5798 147.783 74.9092 147.257C75.0652 147.008 75.1214 146.69 75.2227 146.223C74.8189 145.167 74.4136 144.111 74.0117 143.054C73.9235 142.822 73.8459 142.586 73.7637 142.351ZM91.1445 143.06C91.2441 140.702 92.9806 140.286 94.7236 140.975C95.3103 141.207 95.9692 141.77 96.1963 142.352C96.6292 143.461 97.3335 144.286 98.1514 145.018C99.0217 145.798 99.0157 147.041 97.7158 147.584C95.6713 148.44 93.8323 147.822 92.3789 145.769C91.8341 144.999 91.5484 144.029 91.1445 143.06ZM95.0879 142.674C94.9437 142.005 93.4515 141.677 92.8027 141.946C92.3408 142.138 92.1456 142.418 92.1787 142.933C92.2612 144.215 92.9008 145.182 93.8271 146.133C94.6028 147.087 95.5962 146.854 96.5732 146.669C96.7787 146.631 97.0564 146.571 97.1436 146.421C97.2146 146.299 97.0951 145.995 96.9834 145.828C96.3047 144.811 95.3723 143.997 95.0879 142.674ZM124.677 138.858C125.769 138.104 126.809 138.056 127.801 138.911C128.081 139.153 128.329 139.463 128.517 139.79C128.706 140.118 128.719 140.583 128.953 140.852C129.54 141.528 129.173 142.134 128.694 142.381C127.484 143.007 126.206 143.517 124.915 143.937C124.236 144.158 123.328 143.319 123.163 142.517C122.801 140.758 123.484 139.597 124.677 138.858ZM126.251 139.646C124.843 139.486 123.637 141.184 124.211 142.512C124.38 142.903 124.727 143.322 125.138 142.864C125.719 142.215 126.441 142.095 127.202 141.955C127.407 141.917 127.568 141.614 127.662 141.343C127.374 140.934 127.099 140.514 126.792 140.121C126.643 139.93 126.447 139.669 126.251 139.646ZM148.068 135.126C149.454 135.097 150.576 137.052 149.929 138.321C149.587 138.99 149.163 139.614 148.733 140.304C147.324 141.922 145.453 142.093 144.339 141.582C142.505 140.74 142.102 138.578 143.176 136.891C143.797 135.916 144.679 135.503 145.792 135.453C146.554 135.418 147.308 135.143 148.068 135.126ZM148.61 136.495C148.245 136.195 147.832 135.966 147.358 136.458C147.161 136.664 146.753 136.649 146.268 136.734C146.095 136.734 145.92 136.749 145.749 136.732C144.834 136.638 144.292 137.162 143.905 137.938C143.523 138.705 143.603 139.422 144.121 140.099C144.695 140.848 145.471 141.062 146.299 140.839C147.778 140.442 148.586 139.342 149.034 137.849C149.224 137.217 149.005 136.819 148.61 136.495ZM111.225 129.246C112.039 129.051 112.793 129.061 113.587 129.656C114.689 130.483 115.526 131.444 116.078 132.725C116.278 133.189 116.597 133.403 117.191 133.169C117.653 132.988 118.23 133.129 118.756 133.126C118.725 133.752 118.86 134.456 118.632 134.989C117.879 136.745 116.489 137.499 114.648 137.674C113.077 137.824 111.743 137.293 110.476 136.532C109.163 135.743 108.45 134.519 108.45 132.847C108.45 131.187 109.891 129.565 111.225 129.246ZM71.2314 127.36C72.3785 127.166 72.6527 128.01 72.7822 128.878C72.8698 129.465 72.7988 130.079 72.7988 130.77C72.5442 133.251 71.3232 134.949 69.415 136.229C68.3617 136.935 67.2718 137.327 66.0283 137.278C64.8677 137.231 63.7881 136.071 64.0117 134.941C64.0939 134.526 64.6174 133.894 64.9395 133.894C66.7868 133.895 67.508 132.749 67.9727 131.122C68.2954 129.991 68.6156 128.784 69.6221 128.063C70.0943 127.725 70.6704 127.455 71.2314 127.36ZM113.81 130.605C112.971 129.808 111.559 130.228 110.792 130.605C110.003 130.993 109.526 131.67 109.489 132.626C109.436 134.008 110.057 134.956 111.15 135.682C112.942 136.873 116.776 137.294 117.969 134.473C118.043 134.298 118.08 134.106 118.134 133.922C117.958 133.932 117.773 133.911 117.606 133.958C116.399 134.297 115.685 133.892 115.177 132.66C114.966 132.149 114.648 131.402 113.81 130.605ZM71.502 128.311C71.0648 128.278 70.4022 128.437 70.1904 128.769C69.5283 129.809 68.9133 130.92 68.5039 132.088C68.0177 133.476 67.2396 134.331 65.834 134.581C65.5344 134.634 65.2518 134.863 64.9941 135.058C64.9173 135.116 64.8846 135.401 64.9463 135.47C65.3612 135.939 65.754 136.477 66.6553 136.373C66.9672 136.288 67.2968 136.244 67.5889 136.112C70.211 134.921 71.9877 132.842 71.916 129.503C71.9068 129.081 71.6726 128.325 71.502 128.311ZM87.3506 121.994C87.9 121.581 88.4206 120.938 89.1729 121.24C89.9313 121.544 90.2362 122.264 90.4756 123.083C91.0206 124.95 89.9126 126.535 88.5244 127.362C86.9293 128.312 85.2109 128.682 83.4482 128.958C82.182 129.155 79.7424 128.006 79.1934 127.07C78.4849 125.862 78.9169 124.835 79.5488 123.72C80.3127 123.013 81.0365 122.329 81.8516 121.797C82.7061 121.24 83.6781 121.479 84.4297 122.213C85.5852 123.342 86.3515 123.211 87.1055 122.248C87.178 122.155 87.2583 122.063 87.3506 121.994ZM88.9326 122.272C88.5564 122.232 88.0596 122.561 87.748 122.868C86.4573 124.139 85.3867 124.26 84.0332 122.927C83.6204 122.521 83.158 122.099 82.373 122.423C81.0064 122.988 80.3981 124.164 79.9316 125.42C79.719 125.994 79.7743 126.798 80.5967 127.069C81.4646 127.354 82.3459 127.84 83.2139 127.823C84.4475 127.799 85.6749 127.395 86.9912 127.064C88.3661 126.347 89.8285 125.716 89.5967 123.645C89.5325 123.072 89.6539 122.349 88.9326 122.272ZM132.439 118.68C132.842 118.715 133.245 118.97 133.61 119.191C134.264 119.586 134.853 120.115 135.535 120.435C136.439 120.859 136.667 121.177 136.238 122.061C135.994 122.564 135.603 122.989 135.234 123.495C134.697 123.962 134.237 124.441 133.701 124.794C131.989 125.922 130.353 125.3 129.532 123.244C128.738 121.255 130.446 118.509 132.439 118.68ZM133.551 120.172C132.717 119.465 132.178 119.417 131.34 120.146C131.196 120.271 131.023 120.361 130.777 120.557C130.293 121.078 130.201 121.713 130.255 122.407C130.362 123.799 131.82 124.879 132.937 124.202C133.878 123.63 134.639 122.719 135.44 121.916C135.719 121.636 135.673 121.368 135.221 121.171C134.632 120.915 134.044 120.59 133.551 120.172Z" fill="#FFB61D"/>
</svg>
