<?xml version="1.0" standalone="no"?>
<!DOCTYPE svg PUBLIC "-//W3C//DTD SVG 20010904//EN"
 "http://www.w3.org/TR/2001/REC-SVG-20010904/DTD/svg10.dtd">
<svg version="1.0" xmlns="http://www.w3.org/2000/svg"
 width="32.000000pt" height="32.000000pt" viewBox="0 0 32.000000 32.000000"
 preserveAspectRatio="xMidYMid meet">

<g transform="translate(0.000000,32.000000) scale(0.100000,-0.100000)"
fill="#000000" stroke="none">
<path d="M236 313 c-4 -5 -48 -6 -96 -5 -82 4 -91 2 -112 -20 -21 -20 -24 -31
-22 -94 1 -58 6 -76 23 -93 12 -12 21 -27 21 -34 0 -28 50 -62 90 -62 40 0 90
34 90 61 0 7 11 25 25 39 18 21 23 34 18 56 -4 23 0 34 21 54 33 31 33 58 0
84 -28 22 -46 26 -58 14z m54 -28 c26 -32 -13 -81 -47 -59 -23 14 -28 41 -13
59 16 19 44 19 60 0z m-90 -20 c0 -15 11 -36 27 -51 14 -13 23 -27 19 -31 -3
-4 -12 0 -19 9 -24 30 -48 36 -83 22 -41 -17 -96 -18 -112 -2 -15 15 -15 51 0
66 7 7 43 12 90 12 77 0 78 0 78 -25z m2 -72 c13 -12 18 -30 18 -70 0 -65 -29
-103 -80 -103 -51 0 -80 38 -80 105 0 45 3 55 18 56 9 0 33 6 52 13 48 18 51
18 72 -1z m-162 -53 c0 -11 -4 -20 -10 -20 -5 0 -10 9 -10 20 0 11 5 20 10 20
6 0 10 -9 10 -20z m220 0 c0 -11 -4 -20 -10 -20 -5 0 -10 9 -10 20 0 11 5 20
10 20 6 0 10 -9 10 -20z"/>
<path d="M240 260 c0 -13 7 -20 20 -20 13 0 20 7 20 20 0 13 -7 20 -20 20 -13
0 -20 -7 -20 -20z"/>
<path d="M80 150 c0 -13 11 -13 30 0 12 8 11 10 -7 10 -13 0 -23 -4 -23 -10z"/>
<path d="M170 150 c19 -13 30 -13 30 0 0 6 -10 10 -22 10 -19 0 -20 -2 -8 -10z"/>
<path d="M105 70 c-4 -6 10 -10 35 -10 25 0 39 4 35 10 -3 6 -19 10 -35 10
-16 0 -32 -4 -35 -10z"/>
<path d="M16 62 c-9 -15 23 -64 36 -56 7 4 6 9 0 13 -6 4 -15 17 -20 30 -5 16
-11 20 -16 13z"/>
<path d="M250 58 c0 -9 -7 -23 -15 -32 -8 -8 -11 -17 -6 -20 15 -9 45 44 32
57 -8 8 -11 6 -11 -5z"/>
</g>
</svg>
